<svg width="28" height="28" viewBox="0 0 28 28" fill="none" xmlns="http://www.w3.org/2000/svg">
<path d="M23.3333 14.3202C23.3333 14.7632 23.0041 15.1293 22.577 15.1872L22.4583 15.1952L4.95825 15.1952C4.475 15.1952 4.08325 14.8034 4.08325 14.3202C4.08325 13.8772 4.41243 13.5111 4.83952 13.4532L4.95825 13.4452L22.4583 13.4452C22.9415 13.4452 23.3333 13.8369 23.3333 14.3202Z" fill="#212121"/>
<path d="M12.6339 20.7285C12.9763 21.0695 12.9775 21.6235 12.6365 21.9659C12.3266 22.2772 11.8405 22.3065 11.4974 22.0531L11.3991 21.9686L4.34076 14.9406C4.02852 14.6297 4.00011 14.1419 4.25556 13.7988L4.34071 13.7006L11.399 6.67138C11.7415 6.33038 12.2955 6.33153 12.6365 6.67395C12.9465 6.98523 12.9737 7.4714 12.7188 7.81342L12.6339 7.91138L6.19855 14.3209L12.6339 20.7285Z" fill="#212121"/>
</svg>
