<svg width="20" height="20" viewBox="0 0 20 20" fill="none" xmlns="http://www.w3.org/2000/svg">
<path fill-rule="evenodd" clip-rule="evenodd" d="M10.2055 18.3336C9.07632 18.3336 7.97549 18.3211 6.88632 18.2986C5.49299 18.2711 4.52882 17.3678 4.37132 15.9411C4.10882 13.5745 3.65965 7.99612 3.65549 7.94029C3.62715 7.59612 3.88382 7.29445 4.22799 7.26695C4.56715 7.25779 4.87382 7.49612 4.90132 7.83945C4.90549 7.89612 5.35382 13.4553 5.61382 15.8036C5.70299 16.6145 6.14049 17.0328 6.91215 17.0486C8.99549 17.0928 11.1213 17.0953 13.413 17.0536C14.233 17.0378 14.6763 16.6278 14.768 15.7978C15.0263 13.4695 15.4763 7.89612 15.4813 7.83945C15.5088 7.49612 15.813 7.25612 16.1538 7.26695C16.498 7.29529 16.7547 7.59612 16.7272 7.94029C16.7222 7.99695 16.2705 13.5895 16.0105 15.9353C15.8488 17.3911 14.8872 18.277 13.4355 18.3036C12.3247 18.3228 11.253 18.3336 10.2055 18.3336" fill="#F75555"/>
<path fill-rule="evenodd" clip-rule="evenodd" d="M17.2567 5.82422H3.125C2.78 5.82422 2.5 5.54422 2.5 5.19922C2.5 4.85422 2.78 4.57422 3.125 4.57422H17.2567C17.6017 4.57422 17.8817 4.85422 17.8817 5.19922C17.8817 5.54422 17.6017 5.82422 17.2567 5.82422" fill="#F75555"/>
<path fill-rule="evenodd" clip-rule="evenodd" d="M14.5337 5.82449C13.5853 5.82449 12.762 5.14866 12.5753 4.21866L12.3728 3.20533C12.3303 3.05116 12.1545 2.91699 11.9545 2.91699H8.42701C8.22701 2.91699 8.05117 3.05116 8.00034 3.24366L7.80617 4.21866C7.62034 5.14866 6.79617 5.82449 5.84784 5.82449C5.50284 5.82449 5.22284 5.54449 5.22284 5.19949C5.22284 4.85449 5.50284 4.57449 5.84784 4.57449C6.20284 4.57449 6.51117 4.32116 6.58117 3.97283L6.78367 2.95949C6.98951 2.18283 7.66201 1.66699 8.42701 1.66699H11.9545C12.7195 1.66699 13.392 2.18283 13.5895 2.92199L13.8012 3.97283C13.8703 4.32116 14.1787 4.57449 14.5337 4.57449C14.8787 4.57449 15.1587 4.85449 15.1587 5.19949C15.1587 5.54449 14.8787 5.82449 14.5337 5.82449" fill="#F75555"/>
</svg>
