<svg width="16" height="16" viewBox="0 0 16 16" fill="none" xmlns="http://www.w3.org/2000/svg">
<path fill-rule="evenodd" clip-rule="evenodd" d="M13.0724 12.4984H8.82107C8.54507 12.4984 8.32107 12.7224 8.32107 12.9984C8.32107 13.2744 8.54507 13.4984 8.82107 13.4984H13.0724C13.3484 13.4984 13.5724 13.2744 13.5724 12.9984C13.5724 12.7224 13.3484 12.4984 13.0724 12.4984Z" fill="#29b5b9"/>
<path fill-rule="evenodd" clip-rule="evenodd" d="M6.24448 5.15941C6.31078 5.07123 6.43596 5.05339 6.52425 5.11954L9.97756 7.70647C10.066 7.77274 10.084 7.89821 10.0176 7.98661L6.80446 12.2665C6.03113 13.2998 4.86446 13.5065 4.0578 13.5065C3.5578 13.5065 3.1978 13.4265 3.1578 13.4198C3.07113 13.3998 2.99113 13.3398 2.94446 13.2598C2.8978 13.1732 1.75113 11.1332 3.03113 9.43317L6.24448 5.15941Z" fill="#29b5b9"/>
<path fill-rule="evenodd" clip-rule="evenodd" d="M11.3045 6.27316L10.8578 6.86698C10.7915 6.95513 10.6663 6.97296 10.578 6.90683L7.12418 4.31947C7.03591 4.25335 7.01783 4.12826 7.08375 4.03985L7.53113 3.43983C7.99113 2.81983 8.70447 2.49316 9.42447 2.49316C9.9178 2.49316 10.4111 2.6465 10.8378 2.9665C11.3378 3.3465 11.6645 3.89983 11.7578 4.51983C11.8445 5.1465 11.6845 5.7665 11.3045 6.27316Z" fill="#29b5b9"/>
</svg>
